<svg width="17" height="17" viewBox="0 0 17 17" fill="none" xmlns="http://www.w3.org/2000/svg">
<g clip-path="url(#clip0_2301_5543)">
<path d="M8.5 17C13.1974 17 17 13.177 17 8.5C17 3.82297 13.1974 0 8.5 0C3.82297 0 0 3.82297 0 8.5C0 13.1974 3.82297 17 8.5 17ZM8.5 1.03708C12.628 1.03708 15.9833 4.39234 15.9833 8.52034C15.9833 12.6483 12.628 16.0036 8.5 16.0036C4.37201 16.0036 1.01675 12.6483 1.01675 8.52034C1.03708 4.37201 4.37201 1.03708 8.5 1.03708Z" fill="#FCC10A"/>
<path d="M8.50004 10.2082C8.17468 10.2082 7.93066 9.94383 7.93066 9.63881V5.08378C7.93066 4.77876 8.19502 4.5144 8.50004 4.5144C8.8254 4.5144 9.06942 4.77876 9.06942 5.08378V9.63881C9.06942 9.96417 8.8254 10.2082 8.50004 10.2082Z" fill="#FCC10A"/>
<path d="M8.50004 12.506C8.17468 12.506 7.93066 12.2416 7.93066 11.9366V11.3672C7.93066 11.0622 8.19502 10.7979 8.50004 10.7979C8.8254 10.7979 9.06942 11.0622 9.06942 11.3672V11.9366C9.06942 12.2416 8.8254 12.506 8.50004 12.506Z" fill="#FCC10A"/>
</g>
<defs>
<clipPath id="clip0_2301_5543">
<rect width="17" height="17" fill="white"/>
</clipPath>
</defs>
</svg>
