<svg width="308" height="122" viewBox="0 0 308 122" fill="none" xmlns="http://www.w3.org/2000/svg">
<path d="M54.4688 121.46H64.21V97.583H79.957V88.7207H64.21V15.625H49.5615C26.1973 48.3643 12.3545 69.0918 0.855469 88.4277V97.583H54.4688V121.46ZM10.9629 88.4277C21.5098 71.2891 34.8398 51.3672 54.3223 24.4141H54.4688V88.7207H10.9629V88.4277Z" fill="#FCC10A"/>
<path d="M282.301 121.46H292.042V97.583H307.789V88.7207H292.042V15.625H277.394C254.029 48.3643 240.187 69.0918 228.688 88.4277V97.583H282.301V121.46ZM238.795 88.4277C249.342 71.2891 262.672 51.3672 282.154 24.4141H282.301V88.7207H238.795V88.4277Z" fill="#FCC10A"/>
<path d="M220.023 61.46C220.023 94.8732 192.937 121.96 159.523 121.96C126.11 121.96 99.0234 94.8732 99.0234 61.46C99.0234 28.0467 126.11 0.959961 159.523 0.959961C192.937 0.959961 220.023 28.0467 220.023 61.46Z" fill="#FCC10A"/>
<g clip-path="url(#clip0_742_5195)">
<path d="M181.822 86.9599C179.212 86.9599 177.04 85.0043 176.78 82.4059L176.698 81.6811H160.027L159.945 82.4059C159.672 85.0043 157.513 86.9599 154.903 86.9599C152.293 86.9599 150.12 85.0043 149.861 82.4059L149.779 81.6811H144.422L144.34 82.4059C144.067 85.0043 141.908 86.9599 139.298 86.9599C136.688 86.9599 134.515 85.0043 134.256 82.4059L134.174 81.6811H131.031C130.662 81.6811 130.375 81.3802 130.375 81.0246V76.5663C130.375 76.1971 130.676 75.9099 131.031 75.9099H170.508V57.01C170.508 56.6407 170.809 56.3535 171.164 56.3535C171.451 56.3535 171.71 56.545 171.792 56.8322L171.956 57.4202H184.555C184.801 57.4202 185.02 57.557 185.143 57.7758L191.975 70.5763L192.44 71.4653C192.494 71.561 192.522 71.6704 192.522 71.7798V81.0246C192.522 81.3939 192.221 81.6811 191.866 81.6811H186.946L186.864 82.4059C186.605 85.0043 184.432 86.9599 181.822 86.9599ZM181.822 78.1254C179.745 78.1254 178.064 79.8075 178.064 81.8862C178.064 83.9649 179.745 85.647 181.822 85.647C182.82 85.647 183.763 85.2504 184.473 84.5393C185.184 83.8282 185.58 82.8845 185.58 81.8862C185.58 79.8075 183.899 78.1254 181.822 78.1254ZM154.903 78.1254C152.826 78.1254 151.145 79.8075 151.145 81.8862C151.145 83.9649 152.826 85.647 154.903 85.647C156.966 85.647 158.661 83.9649 158.661 81.8862C158.661 79.8075 156.98 78.1254 154.903 78.1254ZM139.298 78.1254C137.221 78.1254 135.54 79.8075 135.54 81.8862C135.54 83.9649 137.221 85.647 139.298 85.647C141.361 85.647 143.056 83.9649 143.056 81.8862C143.056 79.8075 141.375 78.1254 139.298 78.1254ZM158.729 78.563C159.071 78.9596 159.358 79.3972 159.563 79.8759L159.781 80.3819L160.341 80.3545C160.369 80.3545 160.396 80.3545 160.423 80.3545H170.522V77.2091H157.568L158.729 78.563ZM185.853 80.3545H187.233H191.223V72.532H177.422C177.053 72.532 176.766 72.2311 176.766 71.8755V64.641C176.766 64.2718 177.067 63.9846 177.422 63.9846H187.712C188.081 63.9846 188.368 64.2855 188.368 64.641C188.368 64.9966 188.067 65.2975 187.712 65.2975H178.078V71.2054H190.841L184.173 58.7194H171.833V80.3408H176.958L177.176 79.8485C177.982 77.9886 179.814 76.7851 181.822 76.7851C183.708 76.7851 185.894 77.9339 186.769 80.4092L185.853 80.3545ZM143.124 78.563C143.466 78.9596 143.753 79.3972 143.958 79.8759L144.176 80.3682H150.052L150.271 79.8759C150.476 79.4109 150.749 78.9733 151.104 78.563L152.266 77.2091H141.963L143.124 78.563ZM131.7 80.3545H134.433L134.652 79.8622C134.857 79.3835 135.13 78.9459 135.486 78.5493L136.661 77.1954H131.7V80.3545Z" fill="white"/>
<path d="M127.179 71.52C126.81 71.52 126.523 71.2191 126.523 70.8636V46.6164C126.523 46.2608 126.824 45.96 127.179 45.96H165.577C165.946 45.96 166.233 46.2608 166.233 46.6164V70.8636C166.233 71.2328 165.932 71.52 165.577 71.52H127.179ZM127.835 70.2071H164.921V47.2728H127.835V70.2071Z" fill="white"/>
<path d="M133.945 65.1196C133.767 65.1196 133.603 65.0512 133.48 64.9282C133.357 64.8051 133.289 64.641 133.289 64.4632V53.0165C133.289 52.6473 133.59 52.3601 133.945 52.3601C134.314 52.3601 134.601 52.661 134.601 53.0165V64.4632C134.601 64.8187 134.314 65.1196 133.945 65.1196Z" fill="white"/>
<path d="M140.16 65.1196C139.982 65.1196 139.818 65.0512 139.695 64.9282C139.572 64.8051 139.504 64.641 139.504 64.4632V53.0165C139.504 52.6473 139.805 52.3601 140.16 52.3601C140.515 52.3601 140.816 52.661 140.816 53.0165V64.4632C140.816 64.8187 140.529 65.1196 140.16 65.1196Z" fill="white"/>
<path d="M146.379 65.1196C146.201 65.1196 146.037 65.0512 145.914 64.9282C145.791 64.8051 145.723 64.641 145.723 64.4632V53.0165C145.723 52.6473 146.023 52.3601 146.379 52.3601C146.748 52.3601 147.034 52.661 147.034 53.0165V64.4632C147.034 64.8187 146.748 65.1196 146.379 65.1196Z" fill="white"/>
<path d="M152.597 65.1196C152.42 65.1196 152.256 65.0512 152.133 64.9282C152.01 64.8051 151.941 64.641 151.941 64.4632V53.0165C151.941 52.6473 152.242 52.3601 152.597 52.3601C152.966 52.3601 153.253 52.661 153.253 53.0165V64.4632C153.253 64.8187 152.966 65.1196 152.597 65.1196Z" fill="white"/>
<path d="M158.812 65.1196C158.443 65.1196 158.156 64.8187 158.156 64.4632V53.0165C158.156 52.6473 158.457 52.3601 158.812 52.3601C159.181 52.3601 159.468 52.661 159.468 53.0165V64.4632C159.482 64.8187 159.181 65.1196 158.812 65.1196Z" fill="white"/>
<path d="M139.232 83.1035C139.903 83.1035 140.448 82.5585 140.448 81.8863C140.448 81.2141 139.903 80.6692 139.232 80.6692C138.56 80.6692 138.016 81.2141 138.016 81.8863C138.016 82.5585 138.56 83.1035 139.232 83.1035Z" fill="white"/>
<path d="M154.849 83.1035C155.521 83.1035 156.065 82.5585 156.065 81.8863C156.065 81.2141 155.521 80.6692 154.849 80.6692C154.177 80.6692 153.633 81.2141 153.633 81.8863C153.633 82.5585 154.177 83.1035 154.849 83.1035Z" fill="white"/>
<path d="M181.771 83.1035C182.442 83.1035 182.987 82.5585 182.987 81.8863C182.987 81.2141 182.442 80.6692 181.771 80.6692C181.099 80.6692 180.555 81.2141 180.555 81.8863C180.555 82.5585 181.099 83.1035 181.771 83.1035Z" fill="white"/>
</g>
<path fill-rule="evenodd" clip-rule="evenodd" d="M101.832 93C101.832 92.4477 102.28 92 102.832 92H104.769C105.321 92 105.769 92.4477 105.769 93C105.769 93.5523 105.321 94 104.769 94H102.832C102.28 94 101.832 93.5523 101.832 93ZM107.642 93C107.642 92.4477 108.089 92 108.642 92H112.515C113.067 92 113.515 92.4477 113.515 93C113.515 93.5523 113.067 94 112.515 94H108.642C108.089 94 107.642 93.5523 107.642 93ZM115.388 93C115.388 92.4477 115.836 92 116.388 92H120.261C120.813 92 121.261 92.4477 121.261 93C121.261 93.5523 120.813 94 120.261 94H116.388C115.836 94 115.388 93.5523 115.388 93ZM123.134 93C123.134 92.4477 123.582 92 124.134 92H128.007C128.56 92 129.007 92.4477 129.007 93C129.007 93.5523 128.56 94 128.007 94H124.134C123.582 94 123.134 93.5523 123.134 93ZM130.88 93C130.88 92.4477 131.328 92 131.88 92H135.753C136.306 92 136.753 92.4477 136.753 93C136.753 93.5523 136.306 94 135.753 94H131.88C131.328 94 130.88 93.5523 130.88 93ZM138.627 93C138.627 92.4477 139.074 92 139.627 92H143.5C144.052 92 144.5 92.4477 144.5 93C144.5 93.5523 144.052 94 143.5 94H139.627C139.074 94 138.627 93.5523 138.627 93ZM146.373 93C146.373 92.4477 146.821 92 147.373 92H151.246C151.798 92 152.246 92.4477 152.246 93C152.246 93.5523 151.798 94 151.246 94H147.373C146.821 94 146.373 93.5523 146.373 93ZM154.119 93C154.119 92.4477 154.567 92 155.119 92H158.992C159.544 92 159.992 92.4477 159.992 93C159.992 93.5523 159.544 94 158.992 94H155.119C154.567 94 154.119 93.5523 154.119 93ZM161.865 93C161.865 92.4477 162.313 92 162.865 92H166.738C167.291 92 167.738 92.4477 167.738 93C167.738 93.5523 167.291 94 166.738 94H162.865C162.313 94 161.865 93.5523 161.865 93ZM169.611 93C169.611 92.4477 170.059 92 170.611 92H174.485C175.037 92 175.485 92.4477 175.485 93C175.485 93.5523 175.037 94 174.485 94H170.611C170.059 94 169.611 93.5523 169.611 93ZM177.358 93C177.358 92.4477 177.805 92 178.358 92H182.231C182.783 92 183.231 92.4477 183.231 93C183.231 93.5523 182.783 94 182.231 94H178.358C177.805 94 177.358 93.5523 177.358 93ZM185.104 93C185.104 92.4477 185.552 92 186.104 92H189.977C190.529 92 190.977 92.4477 190.977 93C190.977 93.5523 190.529 94 189.977 94H186.104C185.552 94 185.104 93.5523 185.104 93ZM192.85 93C192.85 92.4477 193.298 92 193.85 92H197.723C198.276 92 198.723 92.4477 198.723 93C198.723 93.5523 198.276 94 197.723 94H193.85C193.298 94 192.85 93.5523 192.85 93ZM200.596 93C200.596 92.4477 201.044 92 201.596 92H205.47C206.022 92 206.47 92.4477 206.47 93C206.47 93.5523 206.022 94 205.47 94H201.596C201.044 94 200.596 93.5523 200.596 93ZM208.343 93C208.343 92.4477 208.79 92 209.343 92H213.216C213.768 92 214.216 92.4477 214.216 93C214.216 93.5523 213.768 94 213.216 94H209.343C208.79 94 208.343 93.5523 208.343 93ZM216.089 93C216.089 92.4477 216.537 92 217.089 92H219.025C219.578 92 220.025 92.4477 220.025 93C220.025 93.5523 219.578 94 219.025 94H217.089C216.537 94 216.089 93.5523 216.089 93Z" fill="white"/>
<defs>
<clipPath id="clip0_742_5195">
<rect width="66" height="41" fill="white" transform="translate(126.523 45.96)"/>
</clipPath>
</defs>
</svg>
